<?xml version="1.0" standalone="no"?>
<!DOCTYPE svg PUBLIC "-//W3C//DTD SVG 20010904//EN"
 "http://www.w3.org/TR/2001/REC-SVG-20010904/DTD/svg10.dtd">
<svg version="1.0" xmlns="http://www.w3.org/2000/svg"
 width="100.000000pt" height="96.000000pt" viewBox="0 0 100.000000 96.000000"
 preserveAspectRatio="xMidYMid meet">

<g transform="translate(0.000000,96.000000) scale(0.100000,-0.100000)"
fill="#000000" stroke="none">
<path d="M380 716 c0 -3 9 -10 20 -16 11 -6 20 -8 20 -6 0 3 -9 10 -20 16 -11
6 -20 8 -20 6z"/>
<path d="M351 683 c7 -12 15 -20 18 -17 3 2 -3 12 -13 22 -17 16 -18 16 -5 -5z"/>
<path d="M398 658 c-16 -5 -28 -15 -28 -23 0 -7 -7 -18 -15 -25 -8 -7 -15 -20
-14 -29 0 -12 2 -11 9 4 10 27 32 45 64 53 14 4 26 11 27 17 1 14 -12 15 -43
3z"/>
<path d="M250 495 c0 -97 4 -155 10 -155 6 0 10 25 10 55 0 30 4 55 8 55 4 0
20 -25 35 -56 36 -73 46 -64 13 11 l-26 57 20 38 c11 22 16 41 11 44 -5 3 -16
-12 -25 -34 -25 -64 -36 -49 -36 50 0 53 -4 90 -10 90 -6 0 -10 -58 -10 -155z"/>
<path d="M485 639 c4 -10 1 -20 -6 -25 -7 -4 -10 -3 -5 4 3 6 2 14 -4 17 -13
8 -100 -33 -100 -46 0 -30 83 -14 116 22 14 15 15 22 5 32 -10 9 -11 9 -6 -4z"/>
<path d="M414 450 c0 -63 1 -89 3 -57 2 31 2 83 0 115 -2 31 -3 5 -3 -58z"/>
<path d="M507 542 c-26 -29 -24 -155 3 -182 20 -20 80 -28 80 -11 0 5 -14 9
-31 9 -44 -1 -59 23 -59 94 0 68 25 103 66 95 13 -2 24 0 24 4 0 17 -67 9 -83
-9z"/>
<path d="M656 544 c-37 -37 -6 -104 49 -104 27 0 45 -18 45 -47 0 -31 -33 -47
-71 -34 -16 5 -29 6 -29 2 0 -23 81 -28 99 -7 7 8 11 32 9 53 -3 36 -5 39 -48
49 -38 9 -45 15 -48 38 -5 38 15 59 50 52 15 -3 28 -1 28 4 0 16 -67 11 -84
-6z"/>
<path d="M815 350 c3 -5 10 -10 16 -10 5 0 9 5 9 10 0 6 -7 10 -16 10 -8 0
-12 -4 -9 -10z"/>
</g>
</svg>
