<?xml version="1.0" standalone="no"?>
<!DOCTYPE svg PUBLIC "-//W3C//DTD SVG 20010904//EN"
 "http://www.w3.org/TR/2001/REC-SVG-20010904/DTD/svg10.dtd">
<svg version="1.0" xmlns="http://www.w3.org/2000/svg"
 width="624.000000pt" height="463.000000pt" viewBox="0 0 624.000000 463.000000"
 preserveAspectRatio="xMidYMid meet">

<g transform="translate(0.000000,463.000000) scale(0.100000,-0.100000)"
fill="#000000" stroke="none">
<path d="M1073 4216 c-123 -39 -210 -142 -262 -310 -25 -82 -26 -114 -5 -144
33 -48 107 -49 149 -2 27 29 89 44 130 30 72 -24 144 -140 184 -296 22 -88 41
-232 41 -310 l0 -50 -82 -65 c-186 -146 -270 -309 -214 -416 69 -134 322 -174
650 -103 481 105 943 403 997 645 27 120 -56 213 -218 245 -37 8 -115 11 -196
8 l-134 -3 -38 73 c-55 103 -182 268 -289 376 -257 259 -526 380 -713 322z
m260 -71 c64 -22 196 -98 262 -151 l30 -23 -50 14 c-68 21 -180 31 -189 17 -4
-7 4 -14 21 -18 219 -49 367 -139 487 -294 45 -58 156 -237 156 -252 0 -4 -11
-8 -24 -8 -20 0 -31 12 -61 68 -59 110 -54 107 -122 87 -134 -39 -422 -164
-466 -203 -9 -8 -19 -13 -20 -11 -2 2 -15 54 -30 114 -44 181 -133 334 -248
425 -71 56 -114 54 -47 -2 25 -21 29 -28 16 -28 -20 0 -25 -20 -5 -21 6 0 -9
-6 -35 -13 -26 -7 -62 -25 -82 -39 -68 -52 -93 -30 -69 64 65 261 234 358 476
274z m1093 -756 c74 -13 151 -55 170 -91 20 -39 17 -95 -8 -147 -28 -60 -173
-204 -268 -266 -188 -124 -458 -235 -700 -286 -152 -33 -371 -33 -452 -1 -73
30 -118 79 -118 130 0 126 180 307 450 450 302 161 701 252 926 211z"/>
<path d="M2136 3311 c-22 -4 -41 -11 -43 -18 -3 -8 8 -10 34 -6 56 7 121 -13
154 -50 16 -17 29 -34 29 -38 0 -3 -48 -9 -107 -12 -263 -14 -511 -125 -706
-315 -83 -82 -88 -85 -102 -66 -8 10 -20 36 -27 57 -16 52 -28 33 -29 -47 -1
-53 3 -74 18 -94 50 -66 175 -110 277 -97 70 10 169 33 219 51 250 94 397 191
470 309 17 29 45 71 61 93 l28 42 -27 52 c-34 66 -60 95 -105 118 -42 21 -92
28 -144 21z"/>
<path d="M124 3386 l-34 -34 0 -1532 c0 -1108 3 -1537 11 -1553 20 -39 51 -57
100 -57 57 0 94 26 109 78 6 23 10 212 10 495 0 309 4 465 11 479 6 11 26 26
45 34 29 12 39 12 68 0 43 -18 31 5 291 -576 114 -256 215 -473 225 -483 41
-44 135 -36 173 15 40 54 34 71 -219 617 -209 453 -238 521 -239 565 0 45 19
91 171 416 94 201 174 376 177 389 9 35 -21 99 -54 116 -66 35 -136 8 -170
-65 -12 -25 -86 -184 -166 -355 -87 -189 -153 -319 -169 -332 -33 -30 -75 -29
-113 3 l-31 25 -2 857 c-3 800 -4 859 -21 883 -22 32 -57 49 -103 49 -28 0
-44 -8 -70 -34z"/>
<path d="M3065 2533 c-213 -45 -394 -183 -483 -366 -71 -146 -72 -153 -72
-810 0 -544 1 -589 19 -659 60 -233 234 -418 466 -495 72 -24 94 -27 230 -27
129 0 166 4 270 28 140 33 150 37 170 76 20 38 19 80 -2 110 -39 58 -74 64
-207 35 -61 -13 -141 -27 -177 -31 -252 -25 -494 147 -539 385 -6 32 -10 266
-10 590 0 572 3 608 51 704 50 98 154 188 266 229 93 34 264 32 408 -6 105
-28 112 -28 148 -13 70 30 86 125 27 168 -28 21 -155 61 -266 84 -91 19 -207
18 -299 -2z"/>
<path d="M4595 2539 c-96 -14 -181 -48 -260 -100 -125 -84 -195 -184 -237
-336 -28 -104 -31 -352 -5 -455 39 -158 134 -286 257 -346 93 -45 165 -61 325
-73 247 -17 322 -40 408 -124 68 -68 100 -140 105 -239 14 -279 -137 -481
-369 -494 -112 -6 -178 10 -389 94 -101 41 -196 74 -210 74 -99 0 -141 -140
-58 -194 51 -33 380 -156 458 -170 372 -71 668 89 756 409 25 91 31 344 9 439
-46 210 -178 339 -396 387 -50 11 -157 24 -237 29 -140 9 -150 11 -222 46 -87
43 -160 113 -205 195 -25 46 -30 67 -33 147 -8 169 31 287 127 383 79 79 153
112 261 116 87 4 110 0 297 -56 65 -20 75 -21 107 -7 48 20 70 56 63 107 -8
58 -28 74 -131 108 -180 59 -309 78 -421 60z"/>
<path d="M1728 2482 c-61 -37 -58 19 -58 -1134 0 -1025 1 -1054 20 -1085 24
-40 53 -55 101 -55 49 1 75 16 99 55 19 31 20 60 20 1085 0 1156 3 1098 -59
1135 -37 22 -88 21 -123 -1z"/>
<path d="M5920 462 c-44 -24 -76 -71 -85 -123 -9 -51 26 -125 74 -156 47 -31
125 -31 171 0 95 63 99 203 9 268 -44 31 -123 36 -169 11z"/>
</g>
</svg>
